<svg width="56" height="56" viewBox="0 0 56 56" fill="none" xmlns="http://www.w3.org/2000/svg"><path opacity="0.2" d="M30.6032 1.80476C31.8146 -0.601583 35.1854 -0.601588 36.3968 1.80475L40.9809 10.9103C41.4538 11.8497 42.336 12.5037 43.3575 12.6724L53.2601 14.3077C55.8771 14.7398 56.9188 18.0113 55.0505 19.9307L47.981 27.1935C47.2517 27.9427 46.9147 29.001 47.0732 30.0446L48.6093 40.1608C49.0152 42.8343 46.2882 44.8562 43.9221 43.6361L34.9688 39.0191C34.0452 38.5429 32.9548 38.5429 32.0312 39.0191L23.0779 43.6361C20.7118 44.8562 17.9848 42.8343 18.3907 40.1608L19.9268 30.0446C20.0853 29.001 19.7483 27.9427 19.019 27.1935L11.9495 19.9307C10.0813 18.0113 11.1229 14.7398 13.7399 14.3077L23.6425 12.6724C24.664 12.5037 25.5462 11.8497 26.0191 10.9103L30.6032 1.80476Z" fill="url(#paint0_radial_3882_4979)"></path><path fill-rule="evenodd" clip-rule="evenodd" d="M41 29V49C41 52.3137 38.3137 55 35 55H7C3.68629 55 1 52.3137 1 49V29C1 25.6863 3.68629 23 7 23H9V16C9 9.37258 14.3726 4 21 4C27.6274 4 33 9.37258 33 16V23H35C38.3137 23 41 25.6863 41 29ZM29 16C29 11.5817 25.4183 8 21 8C16.5817 8 13 11.5817 13 16V23H29V16Z" fill="url(#paint1_radial_3882_4979)"></path><path d="M19 44C19 45.1046 19.8954 46 21 46C22.1046 46 23 45.1046 23 44V39.4649C24.1956 38.7733 25 37.4806 25 36C25 33.7909 23.2091 32 21 32C18.7909 32 17 33.7909 17 36C17 37.4806 17.8044 38.7733 19 39.4649V44Z" fill="white" fill-opacity="0.8"></path><defs><radialGradient id="paint0_radial_3882_4979" cx="0" cy="0" r="1" gradientUnits="userSpaceOnUse" gradientTransform="translate(56 -2.34555e-06) rotate(131.085) scale(58.4889 59.8449)"><stop stop-color="#75FA56"></stop><stop offset="1" stop-color="#4D8540"></stop></radialGradient><radialGradient id="paint1_radial_3882_4979" cx="0" cy="0" r="1" gradientUnits="userSpaceOnUse" gradientTransform="translate(29.9474 19.9375) rotate(121.889) scale(64.2611 73.3151)"><stop stop-color="#75FA56"></stop><stop offset="1"></stop></radialGradient></defs></svg>