<svg width="56" height="56" viewBox="0 0 56 56" fill="none" xmlns="http://www.w3.org/2000/svg"><path opacity="0.2" fill-rule="evenodd" clip-rule="evenodd" d="M34.5039 45.9997C28.0627 45.9098 17.7456 27.854 18.0048 8.46886C19.5274 8.49011 26.0648 7.94315 26.1443 2L44.0365 2.24969C43.957 8.19284 50.4774 8.92203 52 8.94328C51.7409 28.3284 40.9451 46.0896 34.5039 45.9997Z" fill="url(#paint0_radial_3882_5185)"></path><path fill-rule="evenodd" clip-rule="evenodd" d="M20 55C12.8 55 1 35.4077 1 14.2C2.70193 14.2 10 13.5019 10 7H30C30 13.5019 37.2981 14.2 39 14.2C39 35.4077 27.2 55 20 55Z" fill="url(#paint1_radial_3882_5185)"></path><path fill-rule="evenodd" clip-rule="evenodd" d="M25.5831 11.3685C26.5242 10.7903 27.7559 11.0844 28.3342 12.0255C29.3556 13.6877 30.9557 15.0148 32.8282 15.8666C33.8336 16.3239 34.2779 17.5098 33.8205 18.5152C33.3632 19.5206 32.1774 19.9649 31.1719 19.5076C28.68 18.374 26.4212 16.5527 24.9262 14.1196C24.3479 13.1785 24.642 11.9468 25.5831 11.3685Z" fill="white" fill-opacity="0.8"></path><defs><radialGradient id="paint0_radial_3882_5185" cx="0" cy="0" r="1" gradientUnits="userSpaceOnUse" gradientTransform="translate(25.5385 40.9395) rotate(-58.0773) scale(36.8727 26.7534)"><stop stop-color="#3A6530"></stop><stop offset="1" stop-color="#75FA56"></stop></radialGradient><radialGradient id="paint1_radial_3882_5185" cx="0" cy="0" r="1" gradientUnits="userSpaceOnUse" gradientTransform="translate(28.5 22) rotate(122.129) scale(60.6398 69.467)"><stop stop-color="#75FA56"></stop><stop offset="1"></stop></radialGradient></defs></svg>