<svg width="56" height="56" viewBox="0 0 56 56" fill="none" xmlns="http://www.w3.org/2000/svg"><path opacity="0.2" d="M32.9217 1.01175C34.7573 -0.337251 37.2427 -0.337251 39.0783 1.01175L53.8408 11.8614C55.6764 13.2104 56.4444 15.6016 55.7433 17.7843L50.1045 35.3394C49.4034 37.5222 47.3926 39 45.1238 39H26.8762C24.6074 39 22.5966 37.5222 21.8955 35.3394L16.2567 17.7843C15.5556 15.6016 16.3236 13.2104 18.1591 11.8614L32.9217 1.01175Z" fill="url(#paint0_radial_3882_3381)"></path><path d="M49 33C49 45.1503 38.2548 55 25 55C11.7452 55 1 45.1503 1 33C1 20.8497 11.7452 11 25 11C38.2548 11 49 20.8497 49 33Z" fill="url(#paint1_radial_3882_3381)"></path><path opacity="0.4" fill-rule="evenodd" clip-rule="evenodd" d="M49.5 33C49.5 45.4665 38.4891 55.5 25 55.5C11.5109 55.5 0.5 45.4665 0.5 33C0.5 20.5335 11.5109 10.5 25 10.5C38.4891 10.5 49.5 20.5335 49.5 33ZM25 55C38.2548 55 49 45.1503 49 33C49 20.8497 38.2548 11 25 11C11.7452 11 1 20.8497 1 33C1 45.1503 11.7452 55 25 55Z" fill="url(#paint2_linear_3882_3381)"></path><path fill-rule="evenodd" clip-rule="evenodd" d="M25.6231 20.5435C26.2063 19.8853 27.2234 19.8151 27.895 20.3866C28.2105 20.6551 28.5161 20.9343 28.8114 21.2237C32.0154 24.3637 34 28.7062 34 33.5C34 38.7363 31.6326 43.4326 27.895 46.6134C27.2234 47.1849 26.2063 47.1147 25.6231 46.4565C25.04 45.7983 25.1116 44.8015 25.7832 44.23C28.8463 41.6232 30.7791 37.7837 30.7791 33.5C30.7791 29.577 29.1586 26.028 26.5339 23.4557C26.292 23.2187 26.0416 22.9899 25.7832 22.77C25.1116 22.1985 25.04 21.2017 25.6231 20.5435ZM21.0007 25.0835C21.5516 24.3992 22.5642 24.2821 23.2625 24.8219C25.8759 26.8425 27.5582 29.9792 27.5582 33.5C27.5582 37.0208 25.8759 40.1575 23.2625 42.1781C22.5642 42.7179 21.5516 42.6008 21.0007 41.9165C20.4498 41.2321 20.5693 40.2397 21.2676 39.6998C23.1401 38.2521 24.3373 36.0135 24.3373 33.5C24.3373 30.9865 23.1401 28.7479 21.2676 27.3002C20.5693 26.7603 20.4498 25.7678 21.0007 25.0835ZM16.1435 29.972C16.51 29.1778 17.464 28.8251 18.2744 29.1843C19.9472 29.9257 21.1164 31.5773 21.1164 33.5C21.1164 35.4227 19.9472 37.0743 18.2744 37.8157C17.464 38.1749 16.51 37.8222 16.1435 37.028C15.777 36.2338 16.1368 35.2987 16.9472 34.9396C17.5095 34.6903 17.8955 34.1377 17.8955 33.5C17.8955 32.8623 17.5095 32.3097 16.9472 32.0604C16.1368 31.7013 15.777 30.7662 16.1435 29.972Z" fill="white" fill-opacity="0.8"></path><defs><radialGradient id="paint0_radial_3882_3381" cx="0" cy="0" r="1" gradientUnits="userSpaceOnUse" gradientTransform="translate(30.5833 30.3469) rotate(-46.226) scale(25.5969 21.3635)"><stop offset="0.33014" stop-color="#3A6530"></stop><stop offset="1" stop-color="#75FA56"></stop></radialGradient><radialGradient id="paint1_radial_3882_3381" cx="0" cy="0" r="1" gradientUnits="userSpaceOnUse" gradientTransform="translate(35.7368 24.75) rotate(130.873) scale(62.2528 78.3514)"><stop stop-color="#75FA56"></stop><stop offset="1"></stop></radialGradient><linearGradient id="paint2_linear_3882_3381" x1="-3.68292" y1="62.8558" x2="52.9231" y2="-23.5767" gradientUnits="userSpaceOnUse"><stop stop-color="white"></stop><stop offset="1" stop-color="#30FF00"></stop></linearGradient></defs></svg>