<svg width="56" height="57" viewBox="0 0 56 57" fill="none" xmlns="http://www.w3.org/2000/svg"><path opacity="0.2" d="M56 21C56 32.598 46.598 42 35 42C23.402 42 14 32.598 14 21C14 9.40202 23.402 0 35 0C46.598 0 56 9.40202 56 21Z" fill="url(#paint0_radial_3882_276)"></path><path fill-rule="evenodd" clip-rule="evenodd" d="M43 21V41C43 44.3137 40.3137 47 37 47L25 47L7 55L13 47L7 47C3.68629 47 1 44.3137 1 41V21C1 17.6863 3.68629 15 7 15H37C40.3137 15 43 17.6863 43 21Z" fill="url(#paint1_radial_3882_276)"></path><path opacity="0.4" fill-rule="evenodd" clip-rule="evenodd" d="M13 47L7 47C3.68629 47 1 44.3137 1 41V21C1 17.6863 3.68629 15 7 15H37C40.3137 15 43 17.6863 43 21V41C43 44.3137 40.3137 47 37 47L25 47L7 55L13 47ZM25.1061 47.5L37 47.5C40.5899 47.5 43.5 44.5899 43.5 41V21C43.5 17.4102 40.5899 14.5 37 14.5H7C3.41015 14.5 0.5 17.4102 0.5 21V41C0.5 44.5899 3.41015 47.5 7 47.5L12 47.5L5.44695 56.2374L25.1061 47.5Z" fill="url(#paint2_linear_3882_276)"></path><path d="M15 31C15 32.6569 13.6569 34 12 34C10.3431 34 9 32.6569 9 31C9 29.3431 10.3431 28 12 28C13.6569 28 15 29.3431 15 31Z" fill="white" fill-opacity="0.8"></path><path d="M25 31C25 32.6569 23.6569 34 22 34C20.3431 34 19 32.6569 19 31C19 29.3431 20.3431 28 22 28C23.6569 28 25 29.3431 25 31Z" fill="white" fill-opacity="0.8"></path><path d="M35 31C35 32.6569 33.6569 34 32 34C30.3431 34 29 32.6569 29 31C29 29.3431 30.3431 28 32 28C33.6569 28 35 29.3431 35 31Z" fill="white" fill-opacity="0.8"></path><defs><radialGradient id="paint0_radial_3882_276" cx="0" cy="0" r="1" gradientUnits="userSpaceOnUse" gradientTransform="translate(29.3125 32.6812) rotate(-46.9501) scale(27.2382 22.7015)"><stop offset="0.33014" stop-color="#3A6530"></stop><stop offset="1" stop-color="#75FA56"></stop></radialGradient><radialGradient id="paint1_radial_3882_276" cx="0" cy="0" r="1" gradientUnits="userSpaceOnUse" gradientTransform="translate(31.3947 27.5) rotate(129.792) scale(55.6946 69.664)"><stop stop-color="#75FA56"></stop><stop offset="1"></stop></radialGradient><linearGradient id="paint2_linear_3882_276" x1="-3.17073" y1="63.0599" x2="50.4357" y2="-14.3846" gradientUnits="userSpaceOnUse"><stop stop-color="white"></stop><stop offset="1" stop-color="#30FF00"></stop></linearGradient></defs></svg>