<svg width="56" height="56" viewBox="0 0 56 56" fill="none" xmlns="http://www.w3.org/2000/svg"><path opacity="0.2" d="M32.9217 1.01175C34.7573 -0.337251 37.2427 -0.337251 39.0783 1.01175L53.8408 11.8614C55.6764 13.2104 56.4444 15.6016 55.7433 17.7843L50.1045 35.3394C49.4034 37.5222 47.3926 39 45.1238 39H26.8762C24.6074 39 22.5966 37.5222 21.8955 35.3394L16.2567 17.7843C15.5556 15.6016 16.3236 13.2104 18.1591 11.8614L32.9217 1.01175Z" fill="url(#paint0_radial_4212_6487)"></path><path d="M1 22.375C1 18.8542 3.68629 16 7 16H43C46.3137 16 49 18.8542 49 22.375V43.625C49 47.1458 46.3137 50 43 50H7C3.68629 50 1 47.1458 1 43.625V22.375Z" fill="url(#paint1_radial_4212_6487)"></path><path fill-rule="evenodd" clip-rule="evenodd" d="M21.9132 23H24.0868C24.604 23 25.0359 23.3944 25.0827 23.9095L25.3033 26.3366C25.823 26.4925 26.3204 26.6999 26.7897 26.9528L28.6624 25.3922C29.0597 25.0611 29.644 25.0876 30.0097 25.4533L31.5466 26.9902C31.9124 27.3559 31.9389 27.9402 31.6078 28.3375L30.0472 30.2102C30.3001 30.6795 30.5075 31.177 30.6634 31.6967L33.0905 31.9173C33.6056 31.9641 34 32.396 34 32.9132V35.0868C34 35.604 33.6056 36.0359 33.0905 36.0827L30.6634 36.3033C30.5075 36.823 30.3001 37.3205 30.0471 37.7898L31.6077 39.6625C31.9388 40.0599 31.9123 40.6441 31.5466 41.0098L30.0097 42.5468C29.6439 42.9125 29.0597 42.939 28.6624 42.6079L26.7896 41.0472C26.3204 41.3001 25.823 41.5075 25.3033 41.6634L25.0827 44.0905C25.0359 44.6056 24.604 45 24.0868 45H21.9132C21.396 45 20.9641 44.6056 20.9173 44.0905L20.6967 41.6634C20.177 41.5075 19.6795 41.3001 19.2102 41.0472L17.3376 42.6077C16.9403 42.9388 16.356 42.9123 15.9903 42.5466L14.4533 41.0096C14.0876 40.6439 14.0611 40.0597 14.3922 39.6623L15.9528 37.7897C15.6999 37.3204 15.4925 36.823 15.3366 36.3033L12.9095 36.0827C12.3944 36.0359 12 35.604 12 35.0868V32.9132C12 32.396 12.3944 31.9641 12.9095 31.9173L15.3366 31.6967C15.4925 31.177 15.6999 30.6796 15.9528 30.2104L14.3922 28.3377C14.0611 27.9404 14.0876 27.3561 14.4533 26.9904L15.9903 25.4535C16.356 25.0877 16.9402 25.0612 17.3375 25.3924L19.2102 26.9529C19.6795 26.6999 20.177 26.4925 20.6967 26.3366L20.9173 23.9095C20.9641 23.3944 21.396 23 21.9132 23ZM23 38C25.2091 38 27 36.2091 27 34C27 31.7909 25.2091 30 23 30C20.7909 30 19 31.7909 19 34C19 36.2091 20.7909 38 23 38Z" fill="white"></path><path d="M37 23C37 24.6569 35.6569 26 34 26C32.3431 26 31 24.6569 31 23C31 21.3431 32.3431 20 34 20C35.6569 20 37 21.3431 37 23Z" fill="white"></path><path fill-rule="evenodd" clip-rule="evenodd" d="M32.376 28.9777C32.8258 28.4379 32.9456 27.7256 32.7469 27.095C33.1474 27.033 33.5673 27 34 27C36.7614 27 39 28.3431 39 30C39 31.5003 37.9845 32.7433 35 32.9649V32.9132C35 31.8788 34.2112 31.0151 33.1811 30.9214L31.3986 30.7594C31.3457 30.6222 31.2894 30.4866 31.2301 30.3528L32.376 28.9777Z" fill="white"></path><defs><radialGradient id="paint0_radial_4212_6487" cx="0" cy="0" r="1" gradientUnits="userSpaceOnUse" gradientTransform="translate(30.5833 30.3469) rotate(-46.226) scale(25.5969 21.3635)"><stop offset="0.33014" stop-color="#3A6530"></stop><stop offset="1" stop-color="#75FA56"></stop></radialGradient><radialGradient id="paint1_radial_4212_6487" cx="0" cy="0" r="1" gradientUnits="userSpaceOnUse" gradientTransform="translate(35.7368 26.625) rotate(138.237) scale(54.6135 69.0132)"><stop stop-color="#75FA56"></stop><stop offset="1"></stop></radialGradient></defs></svg>