<svg width="89" height="40" viewBox="0 0 89 40" fill="none" xmlns="http://www.w3.org/2000/svg"><g clip-path="url(#clip0_3882_80)"><path d="M70.8024 16.6208C72.2014 15.8719 72.9118 14.7364 72.9118 13.2385C72.9118 12.7714 72.8335 12.3231 72.6795 11.9043C72.5255 11.4856 72.2987 11.0963 72.0043 10.7501C71.7126 10.4038 71.3696 10.1139 70.9887 9.88837C70.5431 9.61994 70.0299 9.43471 69.4681 9.34076C68.9171 9.24949 68.2554 9.20117 67.5073 9.20117H62.4512C61.7408 9.20117 61.2115 9.3676 60.8847 9.69241C60.5552 10.0199 60.3877 10.5514 60.3877 11.2708V20.9239V22.9291V25.0015H62.4512H63.3533H67.2183C68.0448 25.0015 68.7767 24.9612 69.3979 24.878C70.0245 24.7948 70.589 24.6525 71.0779 24.4485C71.8611 24.1076 72.4904 23.5707 72.9523 22.8539C73.4114 22.1399 73.6464 21.3238 73.6464 20.4326C73.6437 18.5992 72.6876 17.3187 70.8024 16.6208ZM63.8422 11.8507H66.2595C67.383 11.8507 68.223 11.9768 68.7632 12.2238C69.271 12.4573 69.5194 12.9244 69.5194 13.6519C69.5194 13.9901 69.4357 14.2988 69.271 14.5753C69.0603 14.9619 68.7659 15.2169 68.3689 15.3538C67.9556 15.4961 67.3587 15.5685 66.5917 15.5685H63.8448V11.8507H63.8422ZM67.0886 22.3466H63.8422V18.1133H66.9833C68.0502 18.1133 68.8577 18.2824 69.3844 18.618C69.8976 18.9455 70.1461 19.4609 70.1461 20.1964C70.1461 21.6433 69.1467 22.3466 67.0886 22.3466Z" fill="white"></path><path d="M47.2002 21.3138H50.2414H53.2827L54.6439 24.9753H58.2226L57.2287 22.4788C57.1801 22.3499 57.126 22.2157 57.0639 22.0627L52.6804 10.9977C52.5183 10.587 52.3427 10.238 52.1564 9.96418C51.9646 9.67964 51.708 9.4461 51.3974 9.27161C51.0841 9.09444 50.6925 9.00586 50.2387 9.00586C49.785 9.00586 49.3934 9.09444 49.0801 9.27161C48.7668 9.4461 48.5129 9.67964 48.3211 9.96418C48.1347 10.238 47.9592 10.587 47.7971 10.9977L43.4136 22.0627C43.3515 22.2157 43.2974 22.3526 43.2488 22.4788L42.2549 24.9753H45.8336L47.2002 21.3138ZM50.2225 12.8741L50.2414 12.9251L50.2603 12.8741L52.3535 18.6723H50.2414H48.1293L50.2225 12.8741Z" fill="white"></path><path d="M86.1549 16.6208C87.5539 15.8719 88.2643 14.7364 88.2643 13.2385C88.2643 12.7714 88.186 12.3231 88.032 11.9043C87.8781 11.4856 87.6512 11.0963 87.3568 10.7501C87.0651 10.4038 86.7221 10.1139 86.3412 9.88837C85.8956 9.61994 85.3824 9.43471 84.8206 9.34076C84.2697 9.24949 83.6079 9.20117 82.8598 9.20117H77.8037C77.0934 9.20117 76.564 9.3676 76.2372 9.69241C75.9077 10.0199 75.7402 10.5514 75.7402 11.2708V20.9239V22.9291V25.0015H77.8037H78.7058H82.5708C83.3973 25.0015 84.1292 24.9612 84.7504 24.878C85.377 24.7948 85.9415 24.6525 86.4304 24.4485C87.2136 24.1076 87.8429 23.5707 88.3048 22.8539C88.764 22.1399 88.9989 21.3238 88.9989 20.4326C88.9989 18.5992 88.0428 17.3187 86.1549 16.6208ZM79.1974 11.8507H81.6147C82.7383 11.8507 83.5782 11.9768 84.1184 12.2238C84.6262 12.4573 84.8747 12.9244 84.8747 13.6519C84.8747 13.9901 84.7909 14.2988 84.6262 14.5753C84.4155 14.9619 84.1211 15.2169 83.7241 15.3538C83.3108 15.4961 82.7139 15.5685 81.9469 15.5685H79.2001V11.8507H79.1974ZM82.4439 22.3466H79.1974V18.1133H82.3385C83.4054 18.1133 84.2129 18.2824 84.7396 18.618C85.2528 18.9455 85.5013 19.4609 85.5013 20.1964C85.4986 21.6433 84.4992 22.3466 82.4439 22.3466Z" fill="white"></path><path d="M7.55407 20.0006C5.29612 16.3713 4.08612 12.0763 4.89909 7.72762C5.17728 6.24316 6.37378 5.09156 7.87547 4.85533C9.21782 4.64595 10.1874 4.53858 12.0889 4.69695C11.4028 5.82708 10.9977 6.95452 10.571 8.04975C9.62025 8.01485 8.65333 8.20544 8.34813 8.2994C7.57568 11.1341 8.57231 15.9875 11.5811 20.0006H7.55407Z" fill="white"></path><path d="M11.2363 11.1671C12.2222 7.01438 14.4234 3.13008 18.0912 0.622864C19.3417 -0.23077 21.0109 -0.203926 22.2371 0.684605C23.3364 1.47918 24.0953 2.08585 25.3296 3.53274C24.0413 3.84949 22.9528 4.36221 21.8725 4.83735C21.2243 4.14477 20.4059 3.59985 20.1223 3.44952C17.5591 4.91251 14.8123 9.04378 14.0831 13.9965L11.2363 11.1671Z" fill="white"></path><path d="M20.125 7.50797C23.7766 5.26382 28.098 4.06122 32.4735 4.86922C33.9671 5.14571 35.1258 6.33489 35.3635 7.82741C35.5741 9.16155 35.6822 10.1252 35.5228 12.015C34.3857 11.3332 33.2514 10.9306 32.1494 10.5064C32.1845 9.56152 31.9927 8.60051 31.8982 8.29718C29.0461 7.52944 24.1628 8.51998 20.125 11.5104V7.50797Z" fill="white"></path><path d="M29.0098 11.168C33.1881 12.1478 37.099 14.3329 39.6189 17.9809C40.4778 19.2238 40.4508 20.8828 39.5568 22.1015C38.7574 23.194 38.147 23.9483 36.6912 25.1751C36.3725 23.8946 35.8566 22.8128 35.3785 21.7391C36.0754 21.0948 36.6236 20.2815 36.7749 19.9996C35.3029 17.4521 31.1462 14.7221 26.1631 13.9973L29.0098 11.168Z" fill="white"></path><path d="M32.692 20.002C34.95 23.6312 36.16 27.9263 35.347 32.275C35.0688 33.7594 33.8723 34.911 32.3706 35.1472C31.0283 35.3566 30.0587 35.464 28.1572 35.3056C28.8433 34.1755 29.2484 33.0481 29.6751 31.9528C30.6258 31.9877 31.5928 31.7971 31.898 31.7032C32.6704 28.8685 31.6738 24.0151 28.665 20.002H32.692Z" fill="white"></path><path d="M29.0103 28.8332C28.0245 32.986 25.8259 36.873 22.1554 39.3775C20.9049 40.2311 19.2357 40.2043 18.0095 39.3158C16.9103 38.5212 16.1513 37.9145 14.917 36.4676C16.2053 36.1509 17.2938 35.6382 18.3741 35.163C19.0224 35.8556 19.8407 36.4005 20.1243 36.5508C22.6875 35.0879 25.4343 30.9566 26.1635 26.0039L29.0103 28.8332Z" fill="white"></path><path d="M20.1255 32.4915C16.4739 34.7356 12.1525 35.9382 7.77701 35.1302C6.28341 34.8537 5.12473 33.6645 4.88705 32.172C4.67638 30.8379 4.56834 29.8742 4.72769 27.9844C5.86477 28.6662 6.99915 29.0689 8.10112 29.493C8.06601 30.4379 8.25777 31.3989 8.3523 31.7022C11.2045 32.47 16.0877 31.4794 20.1255 28.489V32.4915Z" fill="white"></path><path d="M11.2358 28.8333C7.05753 27.8535 3.14663 25.6684 0.626696 22.0203C-0.23219 20.7775 -0.205181 19.1185 0.688816 17.8998C1.48828 16.8072 2.09869 16.0529 3.55447 14.8262C3.87318 16.1066 4.38905 17.1884 4.86711 18.2622C4.17027 18.9064 3.62199 19.7198 3.47074 20.0017C4.94273 22.5491 9.09941 25.2792 14.0826 26.0039L11.2358 28.8333Z" fill="white"></path><path d="M42.3506 30.3975L43.2851 28.2715H43.6308L44.5653 30.3975H44.171L43.9549 29.8875H42.9502L42.7314 30.3975H42.3506ZM43.0879 29.5573H43.8199L43.4525 28.7144L43.0879 29.5573Z" fill="white"></path><path d="M44.8145 30.3985V30.1488L45.7409 29.1046H44.8496V28.8066H46.2081V29.0563L45.2817 30.1005H46.2081V30.3985H44.8145Z" fill="white"></path><path d="M47.1948 28.7695C47.4298 28.7695 47.6243 28.8474 47.7809 29.0004C47.9376 29.1534 48.0159 29.352 48.0159 29.5936V29.599C48.0159 29.8325 47.943 30.0285 47.7944 30.1896C47.6459 30.3506 47.4595 30.4312 47.2299 30.4312C46.9869 30.4312 46.7978 30.3506 46.6655 30.1842C46.5304 30.0204 46.4629 29.8164 46.4629 29.5748C46.4629 29.5561 46.4656 29.5212 46.4683 29.4728H47.6459C47.627 29.344 47.5729 29.2447 47.4919 29.1749C47.4082 29.1051 47.3083 29.0702 47.1894 29.0702C47.0328 29.0702 46.8869 29.1346 46.7519 29.2608L46.5358 29.0702C46.7033 28.8689 46.922 28.7695 47.1948 28.7695ZM47.6513 29.7144H46.8275C46.8383 29.8379 46.8815 29.9372 46.9517 30.0151C47.022 30.0929 47.1165 30.1332 47.2326 30.1332C47.3434 30.1332 47.4379 30.0956 47.5108 30.0178C47.5865 29.9426 47.6324 29.8406 47.6513 29.7144Z" fill="white"></path><path d="M48.3848 30.3993V28.8075H48.7548V29.1672C48.8682 28.8961 49.0573 28.7672 49.322 28.778V29.1645H49.3004C49.1329 29.1645 49.0006 29.2182 48.9006 29.3256C48.8034 29.433 48.7548 29.5886 48.7548 29.7953V30.402H48.3848V30.3993Z" fill="white"></path><path d="M50.5533 30.4307C50.3318 30.4307 50.1482 30.3367 50.0077 30.1515V30.3985H49.6377V28.1973H50.0077V29.0724C50.1482 28.8737 50.3318 28.7744 50.5533 28.7744C50.7532 28.7744 50.9287 28.8496 51.0746 28.9972C51.2231 29.1448 51.296 29.3462 51.296 29.6012V29.6066C51.296 29.8589 51.2231 30.0602 51.0773 30.2105C50.9287 30.3555 50.7559 30.4307 50.5533 30.4307ZM50.1347 29.9716C50.2265 30.0683 50.3345 30.1139 50.4642 30.1139C50.5938 30.1139 50.7019 30.0683 50.791 29.9743C50.8801 29.8804 50.9233 29.7569 50.9233 29.6039V29.5985C50.9233 29.4482 50.8801 29.3247 50.791 29.2308C50.7019 29.1368 50.5938 29.0885 50.4669 29.0885C50.3372 29.0885 50.2265 29.1368 50.1374 29.2308C50.0455 29.3274 49.9996 29.4482 49.9996 29.5958V29.6012C49.9969 29.7542 50.0428 29.875 50.1347 29.9716Z" fill="white"></path><path d="M52.1363 30.4307C51.9769 30.4307 51.8419 30.3877 51.7312 30.3018C51.6204 30.2159 51.5664 30.0951 51.5664 29.9394V29.9341C51.5664 29.765 51.6258 29.6388 51.7474 29.5502C51.8689 29.4643 52.0283 29.4214 52.2308 29.4214C52.3794 29.4214 52.5225 29.4428 52.6603 29.4885V29.4482C52.6603 29.2173 52.5279 29.1019 52.2632 29.1019C52.1174 29.1019 51.9661 29.1341 51.8041 29.2012L51.7042 28.914C51.9094 28.8281 52.1093 28.7852 52.3119 28.7852C52.5495 28.7852 52.7278 28.8442 52.8439 28.9623C52.9601 29.0778 53.0168 29.2415 53.0168 29.4536V30.3958H52.6603V30.1971C52.5279 30.3528 52.3551 30.4307 52.1363 30.4307ZM52.2389 30.1649C52.3632 30.1649 52.4631 30.1327 52.5441 30.071C52.6252 30.0066 52.6657 29.926 52.6657 29.824V29.7166C52.5576 29.6737 52.4361 29.6522 52.3011 29.6522C52.1822 29.6522 52.0904 29.6764 52.0229 29.722C51.958 29.7676 51.9256 29.8348 51.9256 29.918V29.9233C51.9256 29.9985 51.9553 30.0576 52.0148 30.1005C52.0742 30.1435 52.1471 30.1649 52.2389 30.1649Z" fill="white"></path><path d="M54.0846 29.9878L54.5033 28.8066H54.8841L54.2467 30.4414C54.1819 30.6052 54.1089 30.7233 54.0306 30.7904C53.9523 30.8575 53.847 30.8924 53.7173 30.8924C53.5823 30.8924 53.4553 30.8602 53.3392 30.7931L53.4634 30.5246C53.5391 30.5649 53.612 30.5837 53.6795 30.5837C53.7335 30.5837 53.7794 30.5703 53.8118 30.5434C53.8443 30.5166 53.8767 30.4683 53.9064 30.4038L53.2393 28.8093H53.6336L54.0846 29.9878Z" fill="white"></path><path d="M55.8536 30.4343C55.6159 30.4343 55.4187 30.3538 55.2621 30.1954C55.1054 30.0371 55.0244 29.8411 55.0244 29.6129V29.6076C55.0244 29.3794 55.1027 29.1834 55.2621 29.0197C55.4214 28.8559 55.6186 28.7754 55.859 28.7754C56.1129 28.7754 56.3262 28.8667 56.4991 29.0492L56.2695 29.2935C56.1426 29.1619 56.0048 29.0948 55.8563 29.0948C55.7239 29.0948 55.6159 29.1432 55.5268 29.2425C55.4377 29.3418 55.3944 29.4599 55.3944 29.6022V29.6076C55.3944 29.7498 55.4404 29.8706 55.5295 29.9699C55.6186 30.0693 55.7348 30.1176 55.8725 30.1176C56.0183 30.1176 56.1561 30.0532 56.2884 29.9216L56.5099 30.1391C56.4235 30.2357 56.3289 30.3082 56.229 30.3619C56.1237 30.4075 55.9994 30.4343 55.8536 30.4343Z" fill="white"></path><path d="M57.3052 30.4307C57.1459 30.4307 57.0108 30.3877 56.9001 30.3018C56.7894 30.2159 56.7354 30.0951 56.7354 29.9394V29.9341C56.7354 29.765 56.7948 29.6388 56.9163 29.5502C57.0379 29.4643 57.1972 29.4214 57.3998 29.4214C57.5483 29.4214 57.6915 29.4428 57.8292 29.4885V29.4482C57.8292 29.2173 57.6969 29.1019 57.4322 29.1019C57.2863 29.1019 57.1351 29.1341 56.973 29.2012L56.8731 28.914C57.0784 28.8281 57.2782 28.7852 57.4808 28.7852C57.7185 28.7852 57.8967 28.8442 58.0129 28.9623C58.129 29.0778 58.1857 29.2415 58.1857 29.4536V30.3958H57.8292V30.1971C57.6969 30.3528 57.5213 30.4307 57.3052 30.4307ZM57.4079 30.1649C57.5321 30.1649 57.6321 30.1327 57.7131 30.071C57.7941 30.0066 57.8346 29.926 57.8346 29.824V29.7166C57.7266 29.6737 57.605 29.6522 57.47 29.6522C57.3512 29.6522 57.2593 29.6764 57.1918 29.722C57.127 29.7676 57.0946 29.8348 57.0946 29.918V29.9233C57.0946 29.9985 57.1243 30.0576 57.1837 30.1005C57.2404 30.1435 57.316 30.1649 57.4079 30.1649Z" fill="white"></path><path d="M58.6201 30.3994V28.8076H58.9901V29.0519C59.1225 28.8667 59.29 28.7754 59.4898 28.7754C59.6708 28.7754 59.8085 28.8291 59.9112 28.9391C60.0111 29.0492 60.0624 29.1968 60.0624 29.3847V30.3994H59.6951V29.4948C59.6951 29.3713 59.6654 29.2747 59.606 29.2076C59.5465 29.1405 59.4628 29.1056 59.3521 29.1056C59.244 29.1056 59.1549 29.1405 59.0901 29.2103C59.0253 29.2801 58.9928 29.3767 58.9928 29.5002V30.3994H58.6201Z" fill="white"></path><path d="M61.8213 30.399V28.2891H62.7747C63.0205 28.2891 63.2041 28.3508 63.3284 28.477C63.4229 28.5709 63.4715 28.689 63.4715 28.8259V28.8313C63.4715 29.0407 63.3716 29.1964 63.169 29.3011C63.3068 29.3494 63.4121 29.4138 63.4823 29.4917C63.5553 29.5695 63.5904 29.6769 63.5904 29.8138V29.8192C63.5904 30.0044 63.5201 30.1467 63.377 30.246C63.2366 30.3453 63.0448 30.3963 62.8044 30.3963H61.8213V30.399ZM63.0961 28.8904V28.885C63.0961 28.8018 63.0637 28.7347 63.0016 28.6864C62.9368 28.638 62.8449 28.6166 62.7234 28.6166H62.1859V29.1776H62.6964C62.8206 29.1776 62.9206 29.1534 62.9908 29.1051C63.061 29.0568 63.0961 28.9843 63.0961 28.8904ZM63.215 29.7789V29.7735C63.215 29.5856 63.0691 29.489 62.7774 29.489H62.1859V30.0688H62.8044C62.9341 30.0688 63.034 30.0447 63.1069 29.9937C63.1798 29.9453 63.215 29.8755 63.215 29.7789Z" fill="white"></path><path d="M64.699 30.4331C64.464 30.4331 64.2696 30.3553 64.1129 30.2023C63.9563 30.0492 63.8779 29.8506 63.8779 29.6063V29.601C63.8779 29.3674 63.9509 29.1715 64.0994 29.0104C64.248 28.8493 64.4343 28.7715 64.6612 28.7715C64.9043 28.7715 65.0933 28.8547 65.2257 29.0184C65.3607 29.1822 65.4282 29.3862 65.4282 29.6278C65.4282 29.6466 65.4255 29.6815 65.4228 29.7298H64.2452C64.2642 29.8587 64.3182 29.958 64.3992 30.0278C64.4829 30.0976 64.5856 30.1325 64.7044 30.1325C64.8611 30.1325 65.0042 30.068 65.1392 29.9419L65.3553 30.1325C65.1852 30.3338 64.9664 30.4331 64.699 30.4331ZM64.2425 29.4909H65.0636C65.0528 29.3674 65.0096 29.2681 64.9394 29.1902C64.8692 29.1124 64.7746 29.0721 64.6585 29.0721C64.545 29.0721 64.4505 29.1097 64.3776 29.1876C64.3047 29.2627 64.2588 29.362 64.2425 29.4909Z" fill="white"></path><path d="M66.4159 29.9878L66.8346 28.8066H67.2181L66.5807 30.4414C66.5159 30.6052 66.4429 30.7233 66.3646 30.7904C66.2863 30.8575 66.181 30.8924 66.0513 30.8924C65.9163 30.8924 65.7893 30.8602 65.6732 30.7931L65.7974 30.5246C65.873 30.5649 65.946 30.5837 66.0135 30.5837C66.0675 30.5837 66.1134 30.5703 66.1458 30.5434C66.1782 30.5166 66.2107 30.4683 66.2404 30.4038L65.5732 28.8093H65.9676L66.4159 29.9878Z" fill="white"></path><path d="M67.5273 30.3994V28.8076H67.8974V29.0519C68.0297 28.8667 68.1972 28.7754 68.397 28.7754C68.578 28.7754 68.7157 28.8291 68.8184 28.9391C68.9183 29.0492 68.9696 29.1968 68.9696 29.3847V30.3994H68.6023V29.4948C68.6023 29.3713 68.5726 29.2747 68.5132 29.2076C68.4537 29.1405 68.37 29.1056 68.2593 29.1056C68.1485 29.1056 68.0621 29.1405 67.9973 29.2103C67.9325 29.2801 67.9001 29.3767 67.9001 29.5002V30.3994H67.5273Z" fill="white"></path><path d="M70.0513 28.7695C70.2863 28.7695 70.4807 28.8474 70.6374 29.0004C70.794 29.1534 70.8724 29.352 70.8724 29.5936V29.599C70.8724 29.8325 70.7994 30.0285 70.6509 30.1896C70.5023 30.3506 70.316 30.4312 70.0864 30.4312C69.8433 30.4312 69.6542 30.3506 69.5219 30.1842C69.3869 30.0204 69.3193 29.8164 69.3193 29.5748C69.3193 29.5561 69.322 29.5212 69.3247 29.4728H70.5023C70.4834 29.344 70.4294 29.2447 70.3484 29.1749C70.2647 29.1051 70.1647 29.0702 70.0459 29.0702C69.8892 29.0702 69.7434 29.1346 69.6083 29.2608L69.3923 29.0702C69.5624 28.8689 69.7812 28.7695 70.0513 28.7695ZM70.5104 29.7144H69.6867C69.6975 29.8379 69.7407 29.9372 69.8109 30.0151C69.8811 30.0929 69.9757 30.1332 70.0918 30.1332C70.2025 30.1332 70.2971 30.0956 70.37 30.0178C70.4456 29.9426 70.4915 29.8406 70.5104 29.7144Z" fill="white"></path><path d="M71.2637 30.3985V28.1973H71.6332V30.3985H71.2637Z" fill="white"></path><path d="M72.392 28.8066L72.7594 29.3408L73.1321 28.8066H73.5237L72.9592 29.5851L73.548 30.3985H73.1483L72.754 29.8321L72.3623 30.3985H71.9707L72.5568 29.5878L71.9923 28.8066H72.392Z" fill="white"></path><path d="M74.2857 30.4307C74.1264 30.4307 73.9913 30.3877 73.8806 30.3018C73.7698 30.2159 73.7158 30.0951 73.7158 29.9394V29.9341C73.7158 29.765 73.7752 29.6388 73.8968 29.5502C74.0183 29.4643 74.1777 29.4214 74.3802 29.4214C74.5288 29.4214 74.6719 29.4428 74.8097 29.4885V29.4482C74.8097 29.2173 74.6773 29.1019 74.4127 29.1019C74.2668 29.1019 74.1156 29.1341 73.9535 29.2012L73.8536 28.914C74.0588 28.8281 74.2587 28.7852 74.4613 28.7852C74.6989 28.7852 74.8772 28.8442 74.9933 28.9623C75.1095 29.0778 75.1662 29.2415 75.1662 29.4536V30.3958H74.8097V30.1971C74.6773 30.3528 74.5045 30.4307 74.2857 30.4307ZM74.3883 30.1649C74.5126 30.1649 74.6125 30.1327 74.6935 30.071C74.7746 30.0066 74.8151 29.926 74.8151 29.824V29.7166C74.707 29.6737 74.5855 29.6522 74.4505 29.6522C74.3316 29.6522 74.2398 29.6764 74.1723 29.722C74.1074 29.7676 74.075 29.8348 74.075 29.918V29.9233C74.075 29.9985 74.1047 30.0576 74.1642 30.1005C74.2236 30.1435 74.2992 30.1649 74.3883 30.1649Z" fill="white"></path><path d="M75.623 30.3985V28.1973H75.9926V30.3985H75.623Z" fill="white"></path><path d="M77.6809 30.8795V30.1305C77.5405 30.3292 77.3568 30.4285 77.1353 30.4285C76.9355 30.4285 76.7599 30.3533 76.6141 30.2057C76.4655 30.058 76.3926 29.8567 76.3926 29.6017V29.5963C76.3926 29.344 76.4655 29.1427 76.6114 28.9923C76.7572 28.8447 76.9328 28.7695 77.1353 28.7695C77.3595 28.7695 77.5405 28.8635 77.6809 29.0487V28.8017H78.0482V30.8768H77.6809V30.8795ZM77.2218 30.1144C77.3487 30.1144 77.4594 30.0661 77.5486 29.9721C77.6404 29.8755 77.6863 29.7547 77.6863 29.6071V29.6017C77.6863 29.454 77.6404 29.3306 77.5486 29.2366C77.4567 29.14 77.3487 29.0943 77.2218 29.0943C77.0921 29.0943 76.9841 29.14 76.895 29.2339C76.8058 29.3279 76.7626 29.4514 76.7626 29.6044V29.6097C76.7626 29.7601 76.8058 29.8836 76.895 29.9775C76.9841 30.0661 77.0921 30.1144 77.2218 30.1144Z" fill="white"></path><path d="M79.7646 30.399V28.2891H80.7181C80.9638 28.2891 81.1475 28.3508 81.2717 28.477C81.3663 28.5709 81.4149 28.689 81.4149 28.8259V28.8313C81.4149 29.0407 81.315 29.1964 81.1124 29.3011C81.2501 29.3494 81.3555 29.4138 81.4257 29.4917C81.4986 29.5695 81.5337 29.6769 81.5337 29.8138V29.8192C81.5337 30.0044 81.4635 30.1467 81.3204 30.246C81.1799 30.3453 80.9882 30.3963 80.7478 30.3963H79.7646V30.399ZM81.0422 28.8904V28.885C81.0422 28.8018 81.0098 28.7347 80.9476 28.6864C80.8828 28.638 80.791 28.6166 80.6695 28.6166H80.132V29.1776H80.6424C80.7667 29.1776 80.8666 29.1534 80.9368 29.1051C81.0071 29.0568 81.0422 28.9843 81.0422 28.8904ZM81.161 29.7789V29.7735C81.161 29.5856 81.0152 29.489 80.7235 29.489H80.132V30.0688H80.7505C80.8801 30.0688 80.9801 30.0447 81.053 29.9937C81.1232 29.9453 81.161 29.8755 81.161 29.7789Z" fill="white"></path><path d="M82.3726 30.4307C82.2133 30.4307 82.0782 30.3877 81.9675 30.3018C81.8568 30.2159 81.8027 30.0951 81.8027 29.9394V29.9341C81.8027 29.765 81.8622 29.6388 81.9837 29.5502C82.1052 29.4643 82.2646 29.4214 82.4672 29.4214C82.6157 29.4214 82.7589 29.4428 82.8966 29.4885V29.4482C82.8966 29.2173 82.7643 29.1019 82.4996 29.1019C82.3537 29.1019 82.2025 29.1341 82.0404 29.2012L81.9405 28.914C82.1458 28.8281 82.3456 28.7852 82.5482 28.7852C82.7859 28.7852 82.9641 28.8442 83.0803 28.9623C83.1964 29.0778 83.2531 29.2415 83.2531 29.4536V30.3958H82.8939V30.1971C82.7643 30.3528 82.5914 30.4307 82.3726 30.4307ZM82.4753 30.1649C82.5995 30.1649 82.6994 30.1327 82.7805 30.071C82.8615 30.0066 82.902 29.926 82.902 29.824V29.7166C82.794 29.6737 82.6724 29.6522 82.5374 29.6522C82.4185 29.6522 82.3267 29.6764 82.2592 29.722C82.1944 29.7676 82.1593 29.8348 82.1593 29.918V29.9233C82.1593 29.9985 82.189 30.0576 82.2484 30.1005C82.3105 30.1435 82.3834 30.1649 82.4753 30.1649Z" fill="white"></path><path d="M83.6885 30.3994V28.8076H84.0585V29.0519C84.1908 28.8667 84.3583 28.7754 84.5582 28.7754C84.7391 28.7754 84.8769 28.8291 84.9795 28.9391C85.0794 29.0492 85.1308 29.1968 85.1308 29.3847V30.3994H84.7634V29.4948C84.7634 29.3713 84.7337 29.2747 84.6743 29.2076C84.6149 29.1405 84.5312 29.1056 84.4204 29.1056C84.3124 29.1056 84.2233 29.1405 84.1584 29.2103C84.0936 29.2801 84.0585 29.3767 84.0585 29.5002V30.3994H83.6885Z" fill="white"></path><path d="M85.5703 30.3985V28.1973H85.9403V29.5126L86.6047 28.8066H87.0504L86.413 29.4536L87.072 30.3958H86.6426L86.1699 29.7059L85.943 29.9421V30.3985H85.5703Z" fill="white"></path><path d="M87.3545 30.3985V28.8066H87.724V30.3985H87.3545Z" fill="white"></path></g><defs><clipPath id="clip0_3882_80"><rect width="89" height="40" fill="white"></rect></clipPath></defs></svg>