<svg width="108" height="32" viewBox="0 0 108 32" fill="none" xmlns="http://www.w3.org/2000/svg"><g clip-path="url(#clip0_3819_168)"><path fill-rule="evenodd" clip-rule="evenodd" d="M13.0781 32C15.5194 32 17.8495 31.4062 20.0688 30.2192L18.3567 23.0494C17.5958 23.4985 16.6607 23.7232 15.5512 23.7232C13.7437 23.7232 12.8405 22.841 12.8405 21.0765V14.388H18.8325V6.88117H12.8405V0H3.28158V6.88117H0V14.388H3.28158V22.2797C3.28158 25.3272 4.12155 27.7091 5.80185 29.4256C7.48215 31.1417 9.90768 32 13.0781 32ZM39.0913 31.2782H48.6505V6.88121H39.0913V8.85379C37.3795 7.05737 35.1127 6.15931 32.2909 6.15931C28.8987 6.15931 26.1166 7.35429 23.9448 9.74422C21.773 12.1342 20.6871 15.2539 20.6871 19.1035C20.6871 22.921 21.773 26.0249 23.9448 28.4149C26.1166 30.8047 28.8987 32 32.2909 32C35.1127 32 37.3795 31.1017 39.0913 29.3049V31.2782ZM39.0915 19.1035C39.0915 20.483 38.6715 21.6378 37.8315 22.5683C36.9912 23.4986 35.9214 23.9637 34.6214 23.9637C33.3215 23.9637 32.2674 23.4986 31.4589 22.5683C30.6504 21.6378 30.2461 20.483 30.2461 19.1035C30.2461 17.7241 30.6504 16.561 31.4589 15.6149C32.2674 14.6687 33.3215 14.1953 34.6214 14.1953C35.9214 14.1953 36.9912 14.6687 37.8315 15.6149C38.6715 16.561 39.0915 17.7241 39.0915 19.1035ZM91.5694 8.90223C93.2336 10.7308 94.0661 13.1208 94.0661 16.072V31.2782H84.5072V18.1411C84.5072 17.1465 84.2221 16.3368 83.6512 15.7111C83.0803 15.0857 82.3673 14.7729 81.5109 14.7729C80.4965 14.7729 79.6722 15.1661 79.0382 15.9519C78.4041 16.7378 78.0871 17.7722 78.0871 19.0554V31.2782H68.5282V18.1411C68.5282 17.1465 68.2347 16.3368 67.6482 15.7111C67.0621 15.0857 66.3247 14.7729 65.4371 14.7729C64.4224 14.7729 63.6138 15.1661 63.0115 15.9519C62.4093 16.7378 62.1083 17.7722 62.1083 19.0554V31.2782H52.5491V6.88121H62.1083V9.4317C63.7886 7.25011 66.1187 6.15931 69.099 6.15931C72.7448 6.15931 75.3287 7.6031 76.8503 10.49C78.8166 7.6031 81.5587 6.15931 85.0777 6.15931C87.7409 6.15931 89.9048 7.07362 91.5694 8.90223Z" fill="#75FA56"></path><path fill-rule="evenodd" clip-rule="evenodd" d="M105.905 22.5685C106.92 23.6271 107.427 24.8623 107.427 26.2738C107.427 27.7816 106.928 29.0407 105.929 30.0512C104.93 31.062 103.67 31.5669 102.148 31.5669C100.626 31.5669 99.374 31.062 98.3914 30.0512C97.4085 29.0407 96.917 27.7816 96.917 26.2738C96.917 24.8301 97.4164 23.587 98.4151 22.5446C99.4137 21.5016 100.658 20.9805 102.148 20.9805C103.639 20.9805 104.891 21.51 105.905 22.5685Z" fill="#75FA56"></path></g><defs><clipPath id="clip0_3819_168"><rect width="107.429" height="32" fill="white"></rect></clipPath></defs></svg>