<svg width="56" height="56" viewBox="0 0 56 56" fill="none" xmlns="http://www.w3.org/2000/svg"><path opacity="0.2" d="M30.9217 2.16159C33.2935 -0.720529 37.7065 -0.720529 40.0783 2.16159C41.3331 3.68626 43.2645 4.48628 45.2298 4.29541C48.945 3.9346 52.0654 7.05504 51.7046 10.7702C51.5137 12.7355 52.3137 14.6669 53.8384 15.9217C56.7205 18.2935 56.7205 22.7065 53.8384 25.0783C52.3137 26.3331 51.5137 28.2645 51.7046 30.2298C52.0654 33.945 48.945 37.0654 45.2298 36.7046C43.2645 36.5137 41.3331 37.3137 40.0783 38.8384C37.7065 41.7205 33.2935 41.7205 30.9217 38.8384C29.6669 37.3137 27.7355 36.5137 25.7702 36.7046C22.055 37.0654 18.9346 33.945 19.2954 30.2298C19.4863 28.2645 18.6863 26.3331 17.1616 25.0783C14.2795 22.7065 14.2795 18.2935 17.1616 15.9217C18.6863 14.6669 19.4863 12.7355 19.2954 10.7702C18.9346 7.05504 22.055 3.9346 25.7702 4.29541C27.7355 4.48628 29.6669 3.68626 30.9217 2.16159Z" fill="url(#paint0_radial_3888_5943)"></path><path d="M19.64 9.53064C22.4168 6.15645 27.5832 6.15645 30.36 9.53064C31.829 11.3156 34.0901 12.2522 36.391 12.0288C40.7404 11.6064 44.3936 15.2596 43.9712 19.609C43.7478 21.9099 44.6844 24.171 46.4694 25.64C49.8435 28.4168 49.8435 33.5832 46.4694 36.36C44.6844 37.829 43.7478 40.0901 43.9712 42.391C44.3936 46.7404 40.7404 50.3936 36.391 49.9712C34.0901 49.7478 31.829 50.6844 30.36 52.4694C27.5832 55.8435 22.4168 55.8435 19.64 52.4694C18.171 50.6844 15.9099 49.7478 13.609 49.9712C9.25956 50.3936 5.60636 46.7404 6.02877 42.391C6.25222 40.0901 5.31562 37.829 3.53064 36.36C0.156454 33.5832 0.156454 28.4168 3.53064 25.64C5.31562 24.171 6.25222 21.9099 6.02877 19.609C5.60636 15.2596 9.25956 11.6064 13.609 12.0288C15.9099 12.2522 18.171 11.3156 19.64 9.53064Z" fill="url(#paint1_radial_3888_5943)"></path><path fill-rule="evenodd" clip-rule="evenodd" d="M13.6573 11.5311C15.7925 11.7385 17.8908 10.8693 19.2539 9.21291C22.2307 5.59569 27.7693 5.5957 30.7461 9.21291C32.1092 10.8693 34.2075 11.7385 36.3427 11.5311C41.0054 11.0783 44.9217 14.9946 44.4689 19.6573C44.2615 21.7925 45.1307 23.8908 46.7871 25.2539C50.4043 28.2307 50.4043 33.7693 46.7871 36.7461C45.1307 38.1092 44.2615 40.2075 44.4689 42.3427C44.9217 47.0054 41.0054 50.9217 36.3427 50.4689C34.2075 50.2615 32.1092 51.1307 30.7461 52.7871C27.7693 56.4043 22.2307 56.4043 19.2539 52.7871C17.8908 51.1307 15.7925 50.2615 13.6573 50.4689C8.99461 50.9217 5.07828 47.0054 5.53111 42.3427C5.73847 40.2075 4.86933 38.1092 3.21291 36.7461C-0.404305 33.7693 -0.404305 28.2307 3.21291 25.2539C4.86933 23.8908 5.73847 21.7925 5.53111 19.6573C5.07828 14.9946 8.99461 11.0783 13.6573 11.5311ZM30.36 9.53064C27.5832 6.15645 22.4168 6.15645 19.64 9.53064C18.171 11.3156 15.9099 12.2522 13.609 12.0288C9.25956 11.6064 5.60636 15.2596 6.02877 19.609C6.25222 21.9099 5.31562 24.171 3.53064 25.64C0.156454 28.4168 0.156454 33.5832 3.53064 36.36C5.31562 37.829 6.25222 40.0901 6.02877 42.391C5.60636 46.7404 9.25956 50.3936 13.609 49.9712C15.9099 49.7478 18.171 50.6844 19.64 52.4694C22.4168 55.8435 27.5832 55.8435 30.36 52.4694C31.829 50.6844 34.0901 49.7478 36.391 49.9712C40.7404 50.3936 44.3936 46.7404 43.9712 42.391C43.7478 40.0901 44.6844 37.829 46.4694 36.36C49.8435 33.5832 49.8435 28.4168 46.4694 25.64C44.6844 24.171 43.7478 21.9099 43.9712 19.609C44.3936 15.2596 40.7404 11.6064 36.391 12.0288C34.0901 12.2522 31.829 11.3156 30.36 9.53064Z" fill="url(#paint2_radial_3888_5943)"></path><path fill-rule="evenodd" clip-rule="evenodd" d="M34.4674 22.5326C35.1775 23.2426 35.1775 24.3938 34.4674 25.1038L18.1038 41.4674C17.3938 42.1775 16.2426 42.1775 15.5326 41.4674C14.8225 40.7574 14.8225 39.6062 15.5326 38.8962L31.8962 22.5326C32.6062 21.8225 33.7574 21.8225 34.4674 22.5326ZM31.3441 40.8742C29.9311 40.8742 28.8064 39.7499 28.8064 38.3374C28.8064 36.9566 29.9311 35.8295 31.3441 35.8295C32.7283 35.8295 33.8529 36.9566 33.8529 38.3374C33.8529 39.7499 32.7283 40.8742 31.3441 40.8742ZM21.1779 25.6535C21.1779 24.2698 20.0533 23.1456 18.6691 23.1456C17.2849 23.1456 16.1314 24.2698 16.1314 25.6535C16.1314 27.0689 17.2849 28.1902 18.6691 28.1902C20.0533 28.1902 21.1779 27.0689 21.1779 25.6535Z" fill="white" fill-opacity="0.8"></path><defs><radialGradient id="paint0_radial_3888_5943" cx="0" cy="0" r="1" gradientUnits="userSpaceOnUse" gradientTransform="translate(29.9479 31.9031) rotate(-46.9501) scale(26.5897 22.161)"><stop offset="0.33014" stop-color="#3A6530"></stop><stop offset="1" stop-color="#75FA56"></stop></radialGradient><radialGradient id="paint1_radial_3888_5943" cx="0" cy="0" r="1" gradientUnits="userSpaceOnUse" gradientTransform="translate(35.7368 22) rotate(128.424) scale(65.5486 81.1766)"><stop stop-color="#75FA56"></stop><stop offset="1"></stop></radialGradient><radialGradient id="paint2_radial_3888_5943" cx="0" cy="0" r="1" gradientUnits="userSpaceOnUse" gradientTransform="translate(35.9605 21.8125) rotate(128.424) scale(66.9142 82.8678)"><stop stop-color="#75FA56"></stop><stop offset="1"></stop></radialGradient></defs></svg>