<svg width="56" height="56" viewBox="0 0 56 56" fill="none" xmlns="http://www.w3.org/2000/svg"><path opacity="0.2" d="M31.5669 2.83934C33.7694 -0.946446 39.2306 -0.946445 41.4331 2.83934L42.4248 4.54385C43.4436 6.2949 45.3116 7.37507 47.3352 7.38314L49.3049 7.391C53.6799 7.40846 56.4104 12.1451 54.2381 15.9483L53.26 17.6607C52.2552 19.4198 52.2552 21.5802 53.26 23.3393L54.2381 25.0517C56.4104 28.8549 53.6799 33.5915 49.3049 33.609L47.3352 33.6169C45.3116 33.6249 43.4435 34.7051 42.4248 36.4561L41.4331 38.1607C39.2306 41.9464 33.7694 41.9464 31.5669 38.1607L30.5752 36.4561C29.5564 34.7051 27.6884 33.6249 25.6648 33.6169L23.6951 33.609C19.3201 33.5915 16.5896 28.8549 18.7619 25.0517L19.74 23.3393C20.7448 21.5802 20.7448 19.4198 19.74 17.6607L18.7619 15.9483C16.5896 12.1451 19.3201 7.40846 23.6951 7.391L25.6648 7.38314C27.6884 7.37507 29.5565 6.2949 30.5752 4.54385L31.5669 2.83934Z" fill="url(#paint0_radial_3888_6023)"></path><path d="M47 32C47 44.7025 36.7025 55 24 55C11.2975 55 1 44.7025 1 32C1 19.2975 11.2975 9 24 9C36.7025 9 47 19.2975 47 32Z" fill="url(#paint1_radial_3888_6023)"></path><path opacity="0.4" fill-rule="evenodd" clip-rule="evenodd" d="M47.5 32C47.5 44.9787 36.9787 55.5 24 55.5C11.0213 55.5 0.5 44.9787 0.5 32C0.5 19.0213 11.0213 8.5 24 8.5C36.9787 8.5 47.5 19.0213 47.5 32ZM24 55C36.7025 55 47 44.7025 47 32C47 19.2975 36.7025 9 24 9C11.2975 9 1 19.2975 1 32C1 44.7025 11.2975 55 24 55Z" fill="url(#paint2_linear_3888_6023)"></path><path d="M13.6667 23C12.7462 23 12 23.7462 12 24.6667V33C12 33.9205 12.7462 34.6667 13.6667 34.6667H15.3333C16.2538 34.6667 17 33.9205 17 33C17 32.0795 16.2538 31.3333 15.3333 31.3333V26.3333H33.6667V31.3333C32.7462 31.3333 32 32.0795 32 33C32 33.9205 32.7462 34.6667 33.6667 34.6667H35.3333C36.2538 34.6667 37 33.9205 37 33V24.6667C37 23.7462 36.2538 23 35.3333 23H13.6667Z" fill="white" fill-opacity="0.8"></path><path fill-rule="evenodd" clip-rule="evenodd" d="M18.6667 28V41.3333C18.6667 42.2538 19.4129 43 20.3333 43H28.6667C29.5871 43 30.3333 42.2538 30.3333 41.3333V28H18.6667Z" fill="white" fill-opacity="0.8"></path><defs><radialGradient id="paint0_radial_3888_6023" cx="0" cy="0" r="1" gradientUnits="userSpaceOnUse" gradientTransform="translate(31.4896 31.9031) rotate(-49.8689) scale(25.4138 20.9243)"><stop offset="0.33014" stop-color="#3A6530"></stop><stop offset="1" stop-color="#75FA56"></stop></radialGradient><radialGradient id="paint1_radial_3888_6023" cx="0" cy="0" r="1" gradientUnits="userSpaceOnUse" gradientTransform="translate(34.2895 23.375) rotate(128.424) scale(62.8174 77.7942)"><stop stop-color="#75FA56"></stop><stop offset="1"></stop></radialGradient><linearGradient id="paint2_linear_3888_6023" x1="-3.51219" y1="63.1827" x2="57.4663" y2="-22.3255" gradientUnits="userSpaceOnUse"><stop stop-color="white"></stop><stop offset="1" stop-color="#30FF00"></stop></linearGradient></defs></svg>