<svg width="56" height="56" viewBox="0 0 56 56" fill="none" xmlns="http://www.w3.org/2000/svg"><path opacity="0.2" d="M30.4058 1.10989C30.9535 -0.369961 33.0465 -0.369964 33.5942 1.10989L39.0753 15.9205C39.2475 16.3857 39.6143 16.7525 40.0795 16.9247L54.8901 22.4058C56.37 22.9535 56.37 25.0465 54.8901 25.5942L40.0795 31.0753C39.6143 31.2475 39.2475 31.6143 39.0753 32.0795L33.5942 46.8901C33.0465 48.37 30.9535 48.37 30.4058 46.8901L24.9247 32.0795C24.7525 31.6143 24.3857 31.2475 23.9205 31.0753L9.10989 25.5942C7.63004 25.0465 7.63004 22.9535 9.10989 22.4058L23.9205 16.9247C24.3857 16.7525 24.7525 16.3857 24.9247 15.9205L30.4058 1.10989Z" fill="url(#paint0_radial_4256_6088)"></path><path d="M0 22.375C0 18.8542 2.68629 16 6 16H42C45.3137 16 48 18.8542 48 22.375V43.625C48 47.1458 45.3137 50 42 50H6C2.68629 50 0 47.1458 0 43.625V22.375Z" fill="url(#paint1_radial_4256_6088)"></path><path fill-rule="evenodd" clip-rule="evenodd" d="M30.9291 23.9585C31.2461 24.7504 30.8827 25.6582 30.1173 25.9863L28.5557 26.6555C31.2151 28.2736 33 31.2652 33 34.688C33 39.8309 28.9706 44 24 44C19.0294 44 15 39.8309 15 34.688C15 32.2705 15.8924 30.065 17.3524 28.4106C17.911 27.7777 18.8598 27.7331 19.4715 28.311C20.0833 28.889 20.1264 29.8707 19.5678 30.5036C18.5927 31.6084 18 33.0748 18 34.688C18 38.1166 20.6863 40.896 24 40.896C27.3137 40.896 30 38.1166 30 34.688C30 32.1678 28.5485 29.9984 26.4634 29.0257L27.6819 32.0696C27.9989 32.8615 27.6355 33.7693 26.8701 34.0974C26.1048 34.4254 25.2273 34.0493 24.9103 33.2574L22.6142 27.522C22.4619 27.1417 22.4619 26.7144 22.6142 26.3342C22.7664 25.9539 23.0584 25.6517 23.426 25.4942L28.9693 23.1185C29.7346 22.7905 30.6121 23.1666 30.9291 23.9585Z" fill="white" fill-opacity="0.8"></path><defs><radialGradient id="paint0_radial_4256_6088" cx="0" cy="0" r="1" gradientUnits="userSpaceOnUse" gradientTransform="translate(25.5 37.35) rotate(-46.9501) scale(31.1294 25.9446)"><stop offset="0.33014" stop-color="#3A6530"></stop><stop offset="1" stop-color="#75FA56"></stop></radialGradient><radialGradient id="paint1_radial_4256_6088" cx="0" cy="0" r="1" gradientUnits="userSpaceOnUse" gradientTransform="translate(34.7368 26.625) rotate(138.237) scale(54.6135 69.0132)"><stop stop-color="#75FA56"></stop><stop offset="1"></stop></radialGradient></defs></svg>